<svg xmlns="http://www.w3.org/2000/svg" width="px" height="384" viewBox="0 0 384 384">
    <path style="stroke:none;fill-rule:nonzero;fill:#fff;fill-opacity:1" d="M344.719 252.434s-.516-3.118-.813-3.082l-56.469 5.449a9.182 9.182 0 0 0-8.308 8.52l-1.547 22.241-43.7 3.118-2.964-20.16a9.267 9.267 0 0 0-9.117-7.86h-59.602a9.27 9.27 0 0 0-9.113 7.86l-2.965 20.16-43.7-3.118-1.546-22.242a9.176 9.176 0 0 0-8.313-8.52l-56.503-5.448c-.282-.036-.504 3.082-.797 3.082l-.075 12.222 47.864 7.723 1.558 22.43a9.26 9.26 0 0 0 8.532 8.543l60.175 4.3c.235.012.457.024.68.024a9.266 9.266 0 0 0 9.094-7.863l3.058-20.743h43.711l3.059 20.743a9.267 9.267 0 0 0 9.762 7.84l60.187-4.301a9.256 9.256 0 0 0 8.531-8.543l1.559-22.43 47.836-7.758Zm0 0"/>
    <path style="stroke:none;fill-rule:nonzero;fill:#478cbf;fill-opacity:1" d="M39.258 160.266v92.168c.176 0 .34.011.504.023l56.508 5.453a6.085 6.085 0 0 1 5.484 5.625l1.746 24.95L152.777 292l3.399-23.016a6.09 6.09 0 0 1 6.023-5.203h59.602a6.09 6.09 0 0 1 6.023 5.203L231.223 292l49.289-3.516 1.734-24.949a6.085 6.085 0 0 1 5.484-5.625l56.485-5.45c.164-.015.328-.023.504-.023v-7.367h.023v-84.808c7.957-10.008 15.48-21.063 21.258-30.352-8.824-15.023-19.629-28.437-31.184-40.875a305.114 305.114 0 0 0-30.949 18.016c-4.922-4.903-10.453-8.899-15.898-13.082-5.348-4.29-11.371-7.442-17.09-11.11 1.7-12.668 2.543-25.14 2.879-38.16-14.738-7.426-30.465-12.336-46.367-15.875-6.352 10.676-12.164 22.23-17.215 33.528-6-.997-12.024-1.372-18.059-1.442v-.012c-.047 0-.082.012-.117.012s-.07-.012-.121-.012v.012c-6.027.07-12.055.445-18.055 1.442-5.05-11.293-10.86-22.852-17.215-33.528-15.898 3.54-31.629 8.45-46.37 15.88.34 13.019 1.183 25.487 2.882 38.16-5.719 3.663-11.742 6.82-17.086 11.105-5.437 4.183-10.98 8.18-15.902 13.082a304.382 304.382 0 0 0-30.95-18.016C37.63 101.473 26.82 114.891 18 129.915c6.938 10.886 14.379 21.82 21.258 30.35Zm0 0"/>
    <path style="stroke:none;fill-rule:nonzero;fill:#478cbf;fill-opacity:1" d="m294.023 269.52-1.746 25.082a6.071 6.071 0 0 1-5.64 5.632l-60.184 4.301c-.14.012-.293.012-.433.012-2.989 0-5.579-2.188-6.012-5.188l-3.457-23.418h-49.102l-3.457 23.414a6.074 6.074 0 0 1-6.445 5.18l-60.188-4.3a6.074 6.074 0 0 1-5.636-5.637l-1.746-25.082-50.813-4.895c.023 5.461.09 11.45.09 12.633 0 53.66 68.078 79.453 152.64 79.746h.211c84.563-.293 152.614-26.086 152.614-79.746 0-1.207.07-7.168.094-12.633Zm0 0"/>
    <path style="stroke:none;fill-rule:nonzero;fill:#fff;fill-opacity:1" d="M145.957 197.684c0 18.812-15.246 34.05-34.05 34.05-18.802 0-34.048-15.242-34.048-34.05 0-18.797 15.246-34.032 34.043-34.032 18.813 0 34.055 15.235 34.055 34.032Zm0 0"/>
    <path style="stroke:none;fill-rule:nonzero;fill:#414042;fill-opacity:1" d="M137.766 199.7c.004 12.48-10.121 22.6-22.606 22.593-12.48.004-22.601-10.113-22.605-22.594a22.602 22.602 0 0 1 10.05-18.789 22.597 22.597 0 0 1 21.204-2.086 22.587 22.587 0 0 1 13.957 20.875Zm0 0"/>
    <path style="stroke:none;fill-rule:nonzero;fill:#fff;fill-opacity:1" d="M192 234.832c-6.059 0-10.957-4.465-10.957-9.96V193.52c0-5.493 4.898-9.958 10.957-9.958 6.047 0 10.969 4.465 10.969 9.958v31.351c0 5.496-4.922 9.961-10.969 9.961Zm46.043-37.148c0 18.812 15.246 34.05 34.055 34.05 18.797 0 34.043-15.242 34.043-34.05 0-18.797-15.246-34.032-34.043-34.032-18.813 0-34.051 15.235-34.051 34.032Zm0 0"/>
    <path style="stroke:none;fill-rule:nonzero;fill:#414042;fill-opacity:1" d="M246.234 199.7a22.594 22.594 0 0 0 33.992 19.879 22.597 22.597 0 0 0 11.196-19.872c-.281-12.273-10.313-22.078-22.586-22.078-12.277-.004-22.313 9.797-22.598 22.07"/>
</svg>
