<svg xmlns="http://www.w3.org/2000/svg" width="384" height="384" viewBox="0 0 384 384">
    <path style="stroke:none;fill-rule:nonzero;fill:#0074bd;fill-opacity:1" d="M142.852 294.36s-14.301 8.324 10.191 11.128c29.676 3.39 44.84 2.907 77.535-3.273 0 0 8.61 5.383 20.617 10.05-73.32 31.41-165.922-1.82-108.343-17.906Zm-8.965-40.997s-16.043 11.883 8.468 14.418c31.704 3.274 56.73 3.54 100.063-4.8 0 0 5.98 6.074 15.394 9.39-88.625 25.922-187.335 2.043-123.93-19.008Zm0 0"/>
    <path style="stroke:none;fill-rule:nonzero;fill:#ea2d2e;fill-opacity:1" d="M209.406 183.813c18.074 20.804-4.742 39.511-4.742 39.511s45.867-23.676 24.809-53.332c-19.676-27.644-34.762-41.375 46.906-88.738 0 0-128.195 32.008-66.973 102.558Zm0 0"/>
    <path style="stroke:none;fill-rule:nonzero;fill:#0074bd;fill-opacity:1" d="M306.367 324.688s10.59 8.73-11.664 15.476c-42.305 12.816-176.117 16.68-213.281.512-13.352-5.813 11.7-13.875 19.578-15.574 8.219-1.782 12.91-1.457 12.91-1.457-14.86-10.461-96.039 20.55-41.23 29.445 149.46 24.23 272.453-10.91 233.687-28.402ZM149.734 210.882s-68.054 16.168-24.097 22.043c18.562 2.484 55.554 1.914 90.031-.977 28.168-2.367 56.441-7.422 56.441-7.422s-9.925 4.254-17.113 9.157c-69.125 18.183-202.633 9.714-164.191-8.871 32.496-15.72 58.93-13.93 58.93-13.93Zm122.094 68.238c70.262-36.5 37.774-71.578 15.094-66.851-5.543 1.152-8.031 2.16-8.031 2.16s2.066-3.239 6-4.63c44.859-15.765 79.355 46.509-14.47 71.173 0-.004 1.079-.98 1.407-1.852Zm0 0"/>
    <path style="stroke:none;fill-rule:nonzero;fill:#ea2d2e;fill-opacity:1" d="M229.473 4.762s38.906 38.925-36.91 98.77c-60.797 48.015-13.86 75.39-.02 106.675-35.488-32.02-61.527-60.21-44.063-86.445 25.641-38.5 96.688-57.18 80.993-119Zm0 0"/>
    <path style="stroke:none;fill-rule:nonzero;fill:#0074bd;fill-opacity:1" d="M156.64 378.063c67.43 4.312 171-2.399 173.454-34.31 0 0-4.715 12.099-55.73 21.696-57.56 10.836-128.563 9.57-170.665 2.621 0 .004 8.625 7.145 52.942 9.993Zm0 0"/>
</svg>
